<svg width="193" height="52" xmlns="http://www.w3.org/2000/svg" xml:space="preserve" version="1.1">

 <g>
  <title>Layer 1</title>
  <path stroke-width="0" fill="#d31330" stroke="null" id="svg_3" d="m46.54583,13.65623l-6.66353,2.74956l2.66541,-5.06497c0.29616,-0.57885 0.14808,-1.30242 -0.29616,-1.73656s-1.18463,-0.57885 -1.77694,-0.28943l-5.18275,2.60484l2.66541,-6.65682c0.29616,-0.57885 0,-1.30242 -0.59231,-1.73656c-0.59231,-0.43414 -1.33271,-0.28943 -1.92502,0.14471l-10.3655,10.12994c-2.66541,2.60484 -2.96157,6.51211 -1.03655,9.40638l-15.54824,13.31364c-0.88847,0.72357 -1.33271,1.88128 -1.33271,3.03898s0.44424,2.31542 1.33271,3.03898c0.74039,0.86828 1.92502,1.30242 3.10965,1.30242s2.36926,-0.43414 3.25773,-1.30242l13.47514,-15.48434c1.33271,0.86828 2.66541,1.15771 4.1462,1.15771c1.92502,0 3.85004,-0.72357 5.33083,-2.1707l10.3655,-10.12994c0.44424,-0.43414 0.59231,-1.15771 0.14808,-1.73656s-1.18463,-0.86828 -1.77694,-0.57885zm-33.90998,26.91671c-0.59231,0.57885 -1.48079,0.57885 -2.0731,0c-0.29616,-0.28943 -0.44424,-0.57885 -0.44424,-1.01299s0.14808,-0.72357 0.29616,-1.01299l14.51169,-12.15593l-12.29052,14.18192zm23.10025,-16.49734c-1.77694,1.73656 -4.73851,1.73656 -6.66353,0l-1.77694,-1.73656c-1.77694,-1.73656 -1.77694,-4.63083 0,-6.51211l5.18275,-5.06497l-1.33271,3.03898c-0.29616,0.72357 -0.14808,1.44713 0.44424,1.88128s1.33271,0.57885 1.92502,0.28943l3.99812,-2.02599l-1.77694,3.90726c-0.29616,0.57885 -0.29616,1.44713 0.14808,1.88128c0.44424,0.57885 1.33271,0.72357 1.92502,0.43414l3.10965,-1.30242l-5.18275,5.20969z"/>
  <text font-style="normal" font-weight="bold" xml:space="preserve" text-anchor="start" font-family="sans-serif" font-size="35" stroke-width="0" fill="#d31330" id="svg_4" y="36.17937" x="63.72421" stroke="null">FORK</text>
 </g>
</svg>